<?xml version="1.0" encoding="UTF-8"?>
<svg width="194px" height="100px" viewBox="0 0 194 100" version="1.1" xmlns="http://www.w3.org/2000/svg" xmlns:xlink="http://www.w3.org/1999/xlink">
    <!-- Generator: Sketch 52.2 (67145) - http://www.bohemiancoding.com/sketch -->
    <title>Group</title>
    <desc>Created with Sketch.</desc>
    <g id="页面-1" stroke="none" stroke-width="1" fill="none" fill-rule="evenodd" opacity="0.1">
        <g id="HOMEPAGE" transform="translate(-415.000000, -186.000000)">
            <g id="编组-4" transform="translate(313.000000, 172.000000)">
                <g id="编组-3备份">
                    <g transform="translate(102.000000, 14.000000)" id="Group">
                        <g>
                            <path d="M129.224384,60.3454795 L119.173699,49.9249315 L130.324658,38.3468493 L130.324932,38.3512329 C133.535616,34.7065753 138.233973,32.4041096 143.473151,32.4041096 C151.871507,32.4041096 158.886301,38.3147945 160.593699,46.2021918 L193.259452,46.2 C191.347397,20.4041096 169.748767,-2.84217094e-14 143.473151,-2.84217094e-14 C129.493425,-2.84217094e-14 116.84,5.77780822 107.768219,15.0679452 L107.76411,15.0676712 L107.457808,15.3860274 C107.405205,15.4410959 107.352055,15.4953425 107.299726,15.5506849 L96.6753425,26.5994521 L74.22,49.9353425 L63.0789041,61.5035616 L63.0789041,61.4989041 C59.8682192,65.1435616 55.169589,67.4460274 49.9306849,67.4460274 C40.2539726,67.4460274 32.409863,59.6013699 32.409863,49.9249315 C32.409863,40.2484932 40.2539726,32.4041096 49.9306849,32.4041096 C54.5517808,32.4041096 58.7515068,34.1964384 61.8813699,37.1205479 L69.0490411,44.5646575 L91.5,21.2334247 L87.4468493,17.0312329 C86.4249315,15.8671233 85.3473973,14.7539726 84.2230137,13.6890411 L84.1684932,13.6326027 L84.1679452,13.6367123 C75.2221918,5.18986301 63.170411,-2.84217094e-14 49.9252055,-2.84217094e-14 C22.3964384,-2.84217094e-14 2.84217094e-14,22.3958904 2.84217094e-14,49.9249315 C2.84217094e-14,77.4539726 22.3964384,99.850137 49.9252055,99.850137 C63.5687671,99.850137 75.949863,94.3468493 84.970411,85.4460274 L84.9715068,85.4482192 L85.0252055,85.3920548 C85.610411,84.8128767 86.1819178,84.219726 86.7380822,83.6123288 L96.689589,73.2723288 L106.740548,83.7112329 L129.224384,60.3454795 Z" id="Fill-1" fill="#C7976A"></path>
                            <path d="M160.592932,53.6507945 C158.884712,61.5368219 151.870466,67.445863 143.473205,67.445863 C140.354849,67.445863 137.431288,66.6250411 134.895945,65.196 L112.187452,88.7946301 C120.753205,95.7047671 131.636219,99.8499726 143.473205,99.8499726 C169.748548,99.8499726 191.347178,79.446411 193.259233,53.6507945 L160.592932,53.6507945 Z" id="Fill-3" fill="#DDC1A6"></path>
                        </g>
                    </g>
                </g>
            </g>
        </g>
    </g>
</svg>