<?xml version="1.0" encoding="UTF-8"?>
<svg width="226px" height="30px" viewBox="0 0 226 30" version="1.1" xmlns="http://www.w3.org/2000/svg" xmlns:xlink="http://www.w3.org/1999/xlink">
    <!-- Generator: Sketch 52.2 (67145) - http://www.bohemiancoding.com/sketch -->
    <title>编组 7</title>
    <desc>Created with Sketch.</desc>
    <g id="页面-1" stroke="none" stroke-width="1" fill="none" fill-rule="evenodd">
        <g id="HOMEPAGE" transform="translate(-30.000000, -40.000000)">
            <g id="编组-7" transform="translate(30.000000, 34.000000)">
                <g id="编组-3备份" transform="translate(0.000000, 6.000000)">
                    <path d="M38.7673151,18.1036438 L35.7521096,14.9774795 L39.0973973,11.5040548 L39.0974795,11.5053699 C40.0606849,10.4119726 41.4701918,9.72123288 43.0419452,9.72123288 C45.5614521,9.72123288 47.6658904,11.4944384 48.1781096,13.8606575 L57.9778356,13.86 C57.4042192,6.12123288 50.9246301,0 43.0419452,0 C38.8480274,0 35.052,1.73334247 32.3304658,4.52038356 L32.3292329,4.52030137 L32.2373425,4.61580822 C32.2215616,4.63232877 32.2056164,4.64860274 32.1899178,4.66520548 L29.0026027,7.97983562 L22.266,14.9806027 L18.9236712,18.4510685 L18.9236712,18.4496712 C17.9604658,19.5430685 16.5508767,20.2338082 14.9792055,20.2338082 C12.0761918,20.2338082 9.7229589,17.880411 9.7229589,14.9774795 C9.7229589,12.0745479 12.0761918,9.72123288 14.9792055,9.72123288 C16.3655342,9.72123288 17.6254521,10.2589315 18.564411,11.1361644 L20.7147123,13.3693973 L27.45,6.3700274 L26.2340548,5.10936986 C25.9274795,4.76013699 25.6042192,4.42619178 25.2669041,4.10671233 L25.2505479,4.08978082 L25.2503836,4.0910137 C22.5666575,1.5569589 18.9511233,0 14.9775616,0 C6.71893151,0 0,6.71876712 0,14.9774795 C0,23.2361918 6.71893151,29.9550411 14.9775616,29.9550411 C19.0706301,29.9550411 22.7849589,28.3040548 25.4911233,25.6338082 L25.4914521,25.6344658 L25.5075616,25.6176164 C25.6831233,25.443863 25.8545753,25.2659178 26.0214247,25.0836986 L29.0068767,21.9816986 L32.0221644,25.1133699 L38.7673151,18.1036438 Z" id="Fill-1" fill="#C7976A"></path>
                    <path d="M48.1778795,16.0952384 C47.6654137,18.4610466 45.5611397,20.2337589 43.0419616,20.2337589 C42.1064548,20.2337589 41.2293863,19.9875123 40.4687836,19.5588 L33.6562356,26.638389 C36.2259616,28.7114301 39.4908658,29.9549918 43.0419616,29.9549918 C50.9245644,29.9549918 57.4041534,23.8339233 57.9777699,16.0952384 L48.1778795,16.0952384 Z" id="Fill-3" fill="#DDC1A6"></path>
                </g>
                <text id="DeFiBank" font-family="Helvetica" font-size="37" font-weight="normal" letter-spacing="-0.185">
                    <tspan x="65" y="35" fill="#C7976A">DeFi</tspan>
                    <tspan x="142.379141" y="35" fill="#DDC1A6">Bank</tspan>
                </text>
            </g>
        </g>
    </g>
</svg>