<?xml version="1.0" encoding="UTF-8"?>
<svg width="232px" height="30px" viewBox="0 0 232 30" version="1.1" xmlns="http://www.w3.org/2000/svg" xmlns:xlink="http://www.w3.org/1999/xlink">
    <!-- Generator: Sketch 52.2 (67145) - http://www.bohemiancoding.com/sketch -->
    <title>编组 7</title>
    <desc>Created with Sketch.</desc>
    <g id="页面-1" stroke="none" stroke-width="1" fill="none" fill-rule="evenodd">
        <g id="资产详情" transform="translate(-30.000000, -40.000000)">
            <g id="编组-7" transform="translate(30.000000, 40.000000)">
                <g id="编组-3备份">
                    <path d="M38.7673151,18.1036438 L35.7521096,14.9774795 L39.0973973,11.5040548 L39.0974795,11.5053699 C40.0606849,10.4119726 41.4701918,9.72123288 43.0419452,9.72123288 C45.5614521,9.72123288 47.6658904,11.4944384 48.1781096,13.8606575 L57.9778356,13.86 C57.4042192,6.12123288 50.9246301,0 43.0419452,0 C38.8480274,0 35.052,1.73334247 32.3304658,4.52038356 L32.3292329,4.52030137 L32.2373425,4.61580822 C32.2215616,4.63232877 32.2056164,4.64860274 32.1899178,4.66520548 L29.0026027,7.97983562 L22.266,14.9806027 L18.9236712,18.4510685 L18.9236712,18.4496712 C17.9604658,19.5430685 16.5508767,20.2338082 14.9792055,20.2338082 C12.0761918,20.2338082 9.7229589,17.880411 9.7229589,14.9774795 C9.7229589,12.0745479 12.0761918,9.72123288 14.9792055,9.72123288 C16.3655342,9.72123288 17.6254521,10.2589315 18.564411,11.1361644 L20.7147123,13.3693973 L27.45,6.3700274 L26.2340548,5.10936986 C25.9274795,4.76013699 25.6042192,4.42619178 25.2669041,4.10671233 L25.2505479,4.08978082 L25.2503836,4.0910137 C22.5666575,1.5569589 18.9511233,0 14.9775616,0 C6.71893151,0 0,6.71876712 0,14.9774795 C0,23.2361918 6.71893151,29.9550411 14.9775616,29.9550411 C19.0706301,29.9550411 22.7849589,28.3040548 25.4911233,25.6338082 L25.4914521,25.6344658 L25.5075616,25.6176164 C25.6831233,25.443863 25.8545753,25.2659178 26.0214247,25.0836986 L29.0068767,21.9816986 L32.0221644,25.1133699 L38.7673151,18.1036438 Z" id="Fill-1" fill="#C7976A"></path>
                    <path d="M48.1778795,16.0952384 C47.6654137,18.4610466 45.5611397,20.2337589 43.0419616,20.2337589 C42.1064548,20.2337589 41.2293863,19.9875123 40.4687836,19.5588 L33.6562356,26.638389 C36.2259616,28.7114301 39.4908658,29.9549918 43.0419616,29.9549918 C50.9245644,29.9549918 57.4041534,23.8339233 57.9777699,16.0952384 L48.1778795,16.0952384 Z" id="Fill-3" fill="#DDC1A6"></path>
                </g>
                <path d="M76.695,28.492 L68,28.492 L68,2.592 L76.695,2.592 C84.428,2.592 88.942,8.919 88.942,15.542 C88.942,22.165 84.428,28.492 76.695,28.492 Z M70.775,25.976 L76.621,25.976 C82.208,25.976 86.13,21.351 86.13,15.542 C86.13,9.733 82.208,5.108 76.621,5.108 L70.775,5.108 L70.775,25.976 Z M108.663,23.941 L110.18,25.791 C108.663,27.456 105.962,28.936 102.484,28.936 C96.675,28.936 92.827,24.681 92.827,18.909 C92.827,13.211 96.601,8.808 102.151,8.808 C107.849,8.808 111.216,12.989 110.92,19.501 L95.565,19.501 C95.861,23.756 99.043,26.383 102.632,26.383 C105.481,26.383 107.294,25.273 108.663,23.941 Z M95.713,17.207 L108.219,17.207 C107.997,13.914 105.814,11.213 102.151,11.213 C98.932,11.213 96.379,13.544 95.713,17.207 Z M118.357,28.492 L115.582,28.492 L115.582,2.592 L131.27,2.592 L131.27,5.108 L118.357,5.108 L118.357,14.617 L128.828,14.617 L128.828,17.133 L118.357,17.133 L118.357,28.492 Z M138.411,28.492 L135.71,28.492 L135.71,9.363 L138.411,9.363 L138.411,28.492 Z M137.079,6.07 C135.969,6.07 135.044,5.108 135.044,3.998 C135.044,2.925 135.969,2 137.079,2 C138.152,2 139.077,2.925 139.077,3.998 C139.077,5.108 138.152,6.07 137.079,6.07 Z M153.877,28.492 L144.553,28.492 L144.553,2.592 L153.322,2.592 C157.91,2.592 160.722,5.441 160.722,9.363 C160.722,11.546 159.427,13.951 157.503,15.209 C160.574,16.134 162.165,18.465 162.165,21.166 C162.165,24.755 159.575,28.492 153.877,28.492 Z M147.328,25.976 L154.099,25.976 C157.577,25.976 159.316,23.645 159.316,21.203 C159.316,18.613 157.503,16.689 153.433,16.689 L147.328,16.689 L147.328,25.976 Z M147.328,14.247 L153.137,14.247 C155.986,14.247 157.91,12.027 157.91,9.585 C157.91,7.291 156.393,5.108 153.1,5.108 L147.328,5.108 L147.328,14.247 Z M184.92,28.492 L182.367,28.492 L182.367,25.532 C180.406,27.678 177.631,28.936 174.893,28.936 C169.047,28.936 165.606,24.163 165.606,18.909 C165.606,13.618 169.047,8.808 174.893,8.808 C177.594,8.808 180.221,9.77 182.367,12.212 L182.367,9.363 L184.92,9.363 L184.92,28.492 Z M182.219,22.276 L182.219,15.505 C180.924,13.359 178.482,11.324 175.189,11.324 C170.934,11.324 168.381,14.95 168.381,18.909 C168.381,22.831 170.934,26.42 175.189,26.42 C178.482,26.42 180.924,24.422 182.219,22.276 Z M208.785,28.492 L206.084,28.492 L206.084,17.725 C206.084,13.359 203.494,11.324 200.127,11.324 C197.574,11.324 194.947,13.063 193.467,15.542 L193.467,28.492 L190.766,28.492 L190.766,9.363 L193.319,9.363 L193.319,12.397 C195.058,10.288 197.574,8.808 200.793,8.808 C204.715,8.808 208.785,11.287 208.785,17.54 L208.785,28.492 Z M216.962,28.492 L214.261,28.492 L214.261,2.592 L216.962,2.592 L216.962,28.492 Z M231.207,28.492 L227.507,28.492 L217.924,18.798 L226.434,9.363 L229.986,9.363 L221.402,18.761 L231.207,28.492 Z" id="DeFiBank" fill="#C7976A"></path>
            </g>
        </g>
    </g>
</svg>