<?xml version="1.0" encoding="UTF-8"?>
<svg width="124px" height="30px" viewBox="0 0 124 30" version="1.1" xmlns="http://www.w3.org/2000/svg" xmlns:xlink="http://www.w3.org/1999/xlink">
    <!-- Generator: Sketch 52.2 (67145) - http://www.bohemiancoding.com/sketch -->
    <title>编组</title>
    <desc>Created with Sketch.</desc>
    <defs>
        <polygon id="path-1" points="5.66037736e-05 0.371943396 27.7772264 0.371943396 27.7772264 29.4339623 5.66037736e-05 29.4339623"></polygon>
    </defs>
    <g id="页面-1" stroke="none" stroke-width="1" fill="none" fill-rule="evenodd">
        <g id="Exchanger-Dashboard-UI备份-8" transform="translate(-30.000000, -27.000000)">
            <g id="编组" transform="translate(30.000000, 27.000000)">
                <path d="M43.3665849,17.9215472 L41.9396038,11.6283396 L41.882434,11.6283396 L40.4548868,17.9215472 L43.3665849,17.9215472 Z M36.1739434,23.9956981 L40.712434,6.62739623 L43.1384717,6.62739623 L47.6763962,23.9956981 L44.7652642,23.9956981 L43.9088491,20.2638113 L39.9414906,20.2638113 L39.0856415,23.9956981 L36.1739434,23.9956981 Z" id="Fill-1" fill="#FFFFFF"></path>
                <polygon id="Fill-2" fill="#FFFFFF" points="49.3602453 23.9959245 49.3602453 6.6270566 52.1570377 6.6270566 56.5528868 17.0925283 56.6100566 17.0925283 56.6100566 6.6270566 59.5211887 6.6270566 59.5211887 23.9959245 56.781 23.9959245 52.3285472 13.5559245 52.2719434 13.5559245 52.2719434 23.9959245"></polygon>
                <polygon id="Fill-3" fill="#FFFFFF" points="64.430434 23.9959245 64.430434 8.96875472 61.0625094 8.96875472 61.0625094 6.6270566 70.7094906 6.6270566 70.7094906 8.96875472 67.3421321 8.96875472 67.3421321 23.9959245"></polygon>
                <polygon id="Fill-4" fill="#FFFFFF" points="70.4807547 18.4828302 79.0726415 18.4828302 79.0726415 15.9945283 70.4807547 15.9945283"></polygon>
                <g transform="translate(0.000000, 0.194151)">
                    <path d="M91.316717,18.8500755 L91.316717,19.923283 C91.316717,20.4604528 91.1978491,20.9681887 90.9595472,21.4481887 C90.7218113,21.9276226 90.3935094,22.3544151 89.9752075,22.728566 C89.5563396,23.103283 89.0661509,23.3998868 88.5052075,23.6189434 C87.9436981,23.838566 87.3397358,23.9483774 86.6927547,23.9483774 C86.1403019,23.9483774 85.5793585,23.883283 85.0087925,23.7530943 C84.4382264,23.6234717 83.9236981,23.3953585 83.4674717,23.0698868 C83.0106792,22.7449811 82.6348302,22.3266792 82.3404906,21.8138491 C82.0444528,21.3015849 81.8978491,20.6472453 81.8978491,19.8502642 L81.8978491,10.2870566 C81.8978491,9.71818868 82.0121887,9.19007547 82.2403019,8.70158491 C82.4684151,8.21366038 82.7916226,7.79083019 83.2110566,7.43309434 C83.6287925,7.07535849 84.1286038,6.79516981 84.7093585,6.59196226 C85.2895472,6.38818868 85.931434,6.28686792 86.6355849,6.28686792 C88.0053962,6.28686792 89.1187925,6.6689434 89.9752075,7.43309434 C90.3935094,7.80724528 90.7218113,8.25045283 90.9595472,8.76271698 C91.1978491,9.27498113 91.316717,9.83196226 91.316717,10.4336604 L91.316717,11.4095094 L88.4050189,11.4095094 L88.4050189,10.5808302 C88.4050189,10.0917736 88.2431321,9.66950943 87.9199245,9.31120755 C87.5961509,8.95403774 87.1586038,8.77460377 86.607283,8.77460377 C85.8833208,8.77460377 85.4038868,8.96592453 85.1661509,9.34856604 C84.9278491,9.73064151 84.8089811,10.2140377 84.8089811,10.7993208 L84.8089811,19.6793208 C84.8089811,20.1836604 84.9369057,20.6064906 85.1944528,20.9478113 C85.451434,21.2896981 85.9121887,21.4600755 86.5789811,21.4600755 C86.7686038,21.4600755 86.9735094,21.4317736 87.192566,21.3746038 C87.4110566,21.317434 87.6153962,21.2240377 87.8061509,21.0944151 C87.9770943,20.9636604 88.1203019,20.7853585 88.2340755,20.5578113 C88.3484151,20.3296981 88.4050189,20.0449811 88.4050189,19.7036604 L88.4050189,18.8500755 L91.316717,18.8500755 Z" id="Fill-5" fill="#FFFFFF"></path>
                    <polygon id="Fill-7" fill="#FFFFFF" points="93.069 23.8017736 93.069 6.43290566 95.9806981 6.43290566 95.9806981 21.3134717 101.745792 21.3134717 101.745792 23.8017736"></polygon>
                    <path d="M112.432019,6.43313208 L112.432019,19.8986038 C112.432019,20.4686038 112.313717,20.9927547 112.075415,21.4721887 C111.837113,21.9521887 111.499755,22.3789811 111.062208,22.752566 C110.62466,23.126717 110.120321,23.4204906 109.549755,23.6310566 C108.978623,23.8427547 108.369566,23.9480377 107.723151,23.9480377 C107.07617,23.9480377 106.471642,23.8427547 105.910698,23.6310566 C105.348623,23.4204906 104.849377,23.126717 104.41183,22.752566 C103.974283,22.3789811 103.631264,21.9521887 103.384472,21.4721887 C103.137113,20.9927547 103.013151,20.4686038 103.013151,19.8986038 L103.013151,6.43313208 L105.924849,6.43313208 L105.924849,19.6546415 C105.924849,20.2727547 106.095792,20.7284151 106.438245,21.0204906 C106.781264,21.3136981 107.208623,21.4603019 107.723151,21.4603019 C108.237113,21.4603019 108.665038,21.3136981 109.007491,21.0204906 C109.349943,20.7284151 109.520887,20.2727547 109.520887,19.6546415 L109.520887,6.43313208 L112.432019,6.43313208 Z" id="Fill-9" fill="#FFFFFF"></path>
                    <path d="M117.197434,15.7517547 L117.197434,21.3136415 L118.454038,21.3136415 C119.043283,21.3136415 119.504604,21.2400566 119.838,21.0940189 C120.17083,20.9479811 120.422717,20.7447736 120.594226,20.4838302 C120.765736,20.2240189 120.869887,19.9149623 120.908377,19.5577925 C120.946302,19.1994906 120.964981,18.8089245 120.964981,18.3866604 C120.964981,17.9474151 120.936679,17.5653396 120.880075,17.2398679 C120.82234,16.9149623 120.708566,16.6381698 120.537057,16.4106226 C120.346302,16.1830755 120.089321,16.0166604 119.766679,15.9102453 C119.442906,15.8049623 119.014981,15.7517547 118.48234,15.7517547 L117.197434,15.7517547 Z M117.197434,8.77477358 L117.197434,13.5560943 L118.510642,13.5560943 C119.48083,13.5560943 120.132906,13.3489245 120.46517,12.9340189 C120.798,12.5191132 120.964981,11.9140189 120.964981,11.1170377 C120.964981,10.3364717 120.779887,9.7500566 120.408566,9.36062264 C120.037811,8.97062264 119.367057,8.77477358 118.396302,8.77477358 L117.197434,8.77477358 Z M114.286302,23.8019434 L114.286302,6.43307547 L118.538943,6.43307547 C119.471208,6.43307547 120.265925,6.55533962 120.922528,6.79873585 C121.578566,7.04269811 122.115736,7.36816981 122.53517,7.77458491 C122.953472,8.18156604 123.252906,8.64911321 123.434038,9.17779245 C123.614604,9.70590566 123.70517,10.2549623 123.70517,10.8238302 L123.70517,11.4583585 C123.70517,11.9298679 123.662151,12.3283585 123.577245,12.6538302 C123.491208,12.9793019 123.363283,13.2634528 123.191774,13.5074151 C122.868,13.9630755 122.373849,14.3530755 121.707623,14.6785472 C122.392528,14.9553396 122.895736,15.3617547 123.220075,15.8983585 C123.543283,16.4349623 123.70517,17.1668491 123.70517,18.0934528 L123.70517,19.0693019 C123.70517,20.5981698 123.271585,21.7693019 122.406679,22.581566 C121.540642,23.3955283 120.156679,23.8019434 118.25366,23.8019434 L114.286302,23.8019434 Z" id="Fill-11" fill="#FFFFFF"></path>
                    <g>
                        <mask id="mask-2" fill="white">
                            <use xlink:href="#path-1"></use>
                        </mask>
                        <g id="Clip-14"></g>
                        <path d="M13.8889245,24.3125094 L7.94269811,19.6936415 L10.8283585,17.8466604 L10.8283585,7.04722642 L9.72345283,5.97401887 L13.8889245,3.56892453 L18.0538302,5.97401887 L16.9489245,7.04722642 L16.9489245,17.8466604 L19.8345849,19.6936415 L13.8889245,24.3125094 Z M3.98326415,16.6172264 L3.98326415,9.28816981 L7.53288679,7.23854717 L8.39383019,8.07515094 L8.39383019,16.5147736 L5.90326415,18.1087358 L3.98326415,16.6172264 Z M23.7945849,9.28816981 L23.7945849,16.6172264 L21.8740189,18.1087358 L19.3834528,16.5147736 L19.3834528,8.07515094 L20.2449623,7.23854717 L23.7945849,9.28816981 Z M24.0498679,19.5011887 L26.2291132,17.8093019 L26.2291132,7.88326415 L22.0591132,5.47590566 L26.0960943,1.55213208 L23.8189245,0.371943396 L19.8679811,4.21081132 L13.8889245,0.75854717 L7.90930189,4.21081132 L3.95892453,0.371943396 L1.68118868,1.55213208 L5.71816981,5.47590566 L1.54873585,7.88326415 L1.54873585,17.8093019 L3.72741509,19.5011887 L5.66037736e-05,21.8870377 L9.47892453,29.4340189 L11.4945849,27.9283585 L4.17854717,22.1026981 L5.76684906,21.0860943 L13.8889245,27.3945849 L22.010434,21.0860943 L23.5987358,22.1026981 L16.2826981,27.9283585 L18.2983585,29.4340189 L27.7772264,21.8870377 L24.0498679,19.5011887 Z" id="Fill-13" fill="#FFFFFF" mask="url(#mask-2)"></path>
                    </g>
                    <polygon id="Fill-15" fill="#FFFFFF" points="13.8889245 19.2336792 12.3572264 19.2336792 10.9279811 20.0085849 13.8889245 22.3010377 16.8493019 20.0085849 15.4200566 19.2336792"></polygon>
                </g>
            </g>
        </g>
    </g>
</svg>