<?xml version="1.0" encoding="UTF-8"?>
<svg width="28px" height="30px" viewBox="0 0 28 30" version="1.1" xmlns="http://www.w3.org/2000/svg" xmlns:xlink="http://www.w3.org/1999/xlink">
    <!-- Generator: Sketch 52.2 (67145) - http://www.bohemiancoding.com/sketch -->
    <title>编组</title>
    <desc>Created with Sketch.</desc>
    <defs>
        <polygon id="path-1" points="5.66037736e-05 0.371943396 27.7772264 0.371943396 27.7772264 29.4339623 5.66037736e-05 29.4339623"></polygon>
    </defs>
    <g id="页面-1" stroke="none" stroke-width="1" fill="none" fill-rule="evenodd">
        <g id="Exchanger-Dashboard-UI备份-8" transform="translate(-30.000000, -27.000000)">
            <g id="编组" transform="translate(30.000000, 27.000000)">
                <g transform="translate(0.000000, 0.194151)">
                    <g>
                        <mask id="mask-2" fill="white">
                            <use xlink:href="#path-1"></use>
                        </mask>
                        <g id="Clip-14"></g>
                        <path d="M13.8889245,24.3125094 L7.94269811,19.6936415 L10.8283585,17.8466604 L10.8283585,7.04722642 L9.72345283,5.97401887 L13.8889245,3.56892453 L18.0538302,5.97401887 L16.9489245,7.04722642 L16.9489245,17.8466604 L19.8345849,19.6936415 L13.8889245,24.3125094 Z M3.98326415,16.6172264 L3.98326415,9.28816981 L7.53288679,7.23854717 L8.39383019,8.07515094 L8.39383019,16.5147736 L5.90326415,18.1087358 L3.98326415,16.6172264 Z M23.7945849,9.28816981 L23.7945849,16.6172264 L21.8740189,18.1087358 L19.3834528,16.5147736 L19.3834528,8.07515094 L20.2449623,7.23854717 L23.7945849,9.28816981 Z M24.0498679,19.5011887 L26.2291132,17.8093019 L26.2291132,7.88326415 L22.0591132,5.47590566 L26.0960943,1.55213208 L23.8189245,0.371943396 L19.8679811,4.21081132 L13.8889245,0.75854717 L7.90930189,4.21081132 L3.95892453,0.371943396 L1.68118868,1.55213208 L5.71816981,5.47590566 L1.54873585,7.88326415 L1.54873585,17.8093019 L3.72741509,19.5011887 L5.66037736e-05,21.8870377 L9.47892453,29.4340189 L11.4945849,27.9283585 L4.17854717,22.1026981 L5.76684906,21.0860943 L13.8889245,27.3945849 L22.010434,21.0860943 L23.5987358,22.1026981 L16.2826981,27.9283585 L18.2983585,29.4340189 L27.7772264,21.8870377 L24.0498679,19.5011887 Z" id="Fill-13" fill="#FFFFFF" mask="url(#mask-2)"></path>
                    </g>
                </g>
            </g>
        </g>
    </g>
</svg>