<svg id="图层_1" data-name="图层 1" xmlns="http://www.w3.org/2000/svg" viewBox="0 0 232 30.42"><defs><style>.cls-1,.cls-3{fill:#c7976a;}.cls-1,.cls-2{fill-rule:evenodd;}.cls-2,.cls-4{fill:#ddc1a6;}</style></defs><path class="cls-1" d="M38.77,18.57l-3-3.13L39.1,12h0a5.25,5.25,0,0,1,9.08,2.35H58A15,15,0,0,0,32.33,5h0l-.09.1-.05,0L29,8.44l-6.73,7-3.35,3.47h0A5.21,5.21,0,0,1,15,20.7a5.26,5.26,0,0,1,0-10.52,5.19,5.19,0,0,1,3.58,1.42l2.15,2.23,6.74-7L26.23,5.57c-.3-.35-.63-.68-1-1l0,0h0a15,15,0,1,0,.24,21.55h0l0,0,.51-.53,3-3.11,3,3.14Z"/><path class="cls-2" d="M48.18,16.56A5.24,5.24,0,0,1,40.47,20L33.66,27.1A15,15,0,0,0,58,16.56Z"/><path class="cls-3" d="M67.34,28l4.5-25.59h7.6c7.83,0,11.37,4.76,11.37,10.57,0,7.09-5.85,15-15.06,15Zm9.07-4.56c4.6,0,9.14-4.47,9.14-10.21C85.55,9.76,83.21,7,79.77,7H76.22L73.34,23.44Z"/><path class="cls-3" d="M98.71,20c0,2.38,1.86,3.88,4.24,3.88a8.93,8.93,0,0,0,5.85-2l1.72,3.73a12.51,12.51,0,0,1-7.86,2.85c-5.34,0-9.14-3-9.14-8.22A11.53,11.53,0,0,1,104.78,8.55c5.66,0,8,3.7,8,7.68A13.14,13.14,0,0,1,112.2,20Zm9.36-3.73v-.18a3.27,3.27,0,0,0-3.4-3.25,5.68,5.68,0,0,0-5.16,3.43Z"/><path class="cls-3" d="M122,17.91,120.24,28h-5.19l4.5-25.59H136L135.23,7h-11.3l-1.13,6.36H132l-.8,4.57Z"/><path class="cls-3" d="M134.79,28l3.33-18.9h5.12L139.91,28Zm6.4-21.86a2.52,2.52,0,0,1-2.56-2.56A3.81,3.81,0,0,1,142.29,0a2.52,2.52,0,0,1,2.56,2.56A3.87,3.87,0,0,1,141.19,6.14Z"/><path class="cls-4" d="M145.76,28l4.5-25.59h8.62c3.62,0,5.82,2.2,5.82,5.34A8.06,8.06,0,0,1,159.91,15,5.06,5.06,0,0,1,164,20c0,3.73-3.11,8-9.21,8Zm9.14-1.79c4.64,0,7-3.21,7-6.1,0-2.23-1.5-4.1-5.63-4.1h-6.51L148,26.21Zm1.72-12a6.34,6.34,0,0,0,6.07-6.11c0-2-1.17-3.95-4.32-3.95h-6.51l-1.75,10.06Z"/><path class="cls-4" d="M183.05,28l.55-3.29a12.22,12.22,0,0,1-8.45,3.73c-5.12,0-7.35-3.65-7.35-7.82,0-5.59,4-12.07,10.93-12.07a8,8,0,0,1,7.06,3.73l.59-3.18h1.79L184.84,28Zm2.23-13.19a7.14,7.14,0,0,0-6.76-4.5c-5.2,0-8.78,5.48-8.78,10.09,0,3.44,1.79,6.29,5.67,6.29,3.58,0,6.83-2.45,8.59-4.5Z"/><path class="cls-4" d="M206.59,28l1.9-10.78c.88-4.86-1.71-6.87-4.86-6.87-3,0-6.25,2-8.37,4.42L192.92,28h-1.87l3.33-18.9h1.79l-.55,3.22a12.19,12.19,0,0,1,8.23-3.77c3.66,0,7.68,2.16,6.51,8.82L208.46,28Z"/><path class="cls-4" d="M214.31,28,218.8,2.41h1.87L216.17,28Zm13,0-8.41-9.61L229.33,9.1H232l-10.6,9.4,8.37,9.5Z"/></svg>