<?xml version="1.0" encoding="UTF-8"?>
<svg width="19px" height="19px" viewBox="0 0 19 19" version="1.1" xmlns="http://www.w3.org/2000/svg" xmlns:xlink="http://www.w3.org/1999/xlink">
    <!-- Generator: Sketch 52.2 (67145) - http://www.bohemiancoding.com/sketch -->
    <title>日间模式</title>
    <desc>Created with Sketch.</desc>
    <g id="页面-1" stroke="none" stroke-width="1" fill="none" fill-rule="evenodd">
        <g id="个人资产-存款" transform="translate(-108.000000, -956.000000)">
            <g id="编组-8" transform="translate(30.000000, 950.000000)">
                <g id="日间模式" transform="translate(77.000000, 5.000000)">
                    <path d="M10.4761822,6.40431549 C8.22801367,6.40431549 6.40470425,8.22763513 6.40470425,10.4758139 C6.40470425,12.7247395 8.22800344,14.5465348 10.4761822,14.5465348 C12.7251283,14.5465348 14.5469031,12.7239886 14.5469031,10.4758139 C14.5469031,8.22764536 12.7251324,6.40431549 10.4761822,6.40431549 Z" id="路径" fill="#FFFFFF" fill-rule="nonzero"></path>
                    <path d="M10.4762027,4.11526521 C10.866742,4.11526521 11.1829085,3.79909873 11.1829085,3.40935534 L11.1829085,1.99585779 C11.1829085,1.60540235 10.866742,1.28915198 10.4762027,1.28915198 C10.0857472,1.28915198 9.76949686,1.60540235 9.76949686,1.99585779 L9.76949686,3.40935534 C9.76949686,3.79981078 10.0857472,4.11526521 10.4762027,4.11526521 Z" id="路径" fill="#FFFFFF" fill-rule="nonzero"></path>
                    <path d="M10.4762027,16.8355851 C10.0857472,16.8355851 9.76949686,17.1526109 9.76949686,17.5422909 L9.76949686,18.9557884 C9.76949686,19.3470194 10.0857472,19.6632697 10.4762027,19.6632697 C10.866742,19.6632697 11.1829085,19.3470194 11.1829085,18.9557884 L11.1829085,17.5422909 C11.1829085,17.1526089 10.866742,16.8355851 10.4762027,16.8355851 Z" id="路径" fill="#FFFFFF" fill-rule="nonzero"></path>
                    <path d="M18.9553587,9.76912037 L17.541988,9.76912037 C17.1514283,9.76912037 16.8351983,10.0853503 16.8351983,10.4758262 C16.8351983,10.8663655 17.1514283,11.182532 17.541988,11.182532 L18.9553587,11.182532 C19.3466101,11.182532 19.66284,10.8663655 19.66284,10.4758262 C19.6628401,10.0853503 19.3466101,9.76912037 18.9553587,9.76912037 Z" id="路径" fill="#FFFFFF" fill-rule="nonzero"></path>
                    <path d="M4.11563351,10.4758344 C4.11563351,10.0853585 3.79948749,9.76912856 3.4089277,9.76912856 L1.9962486,9.76912856 C1.60658911,9.76912856 1.2895428,10.0853585 1.2895428,10.4758344 C1.2895428,10.8663737 1.60656865,11.1825402 1.9962486,11.1825402 L3.40974616,11.1825402 C3.80020159,11.1825192 4.11563556,10.8663737 4.11563556,10.4758344 L4.11563351,10.4758344 Z" id="路径" fill="#FFFFFF" fill-rule="nonzero"></path>
                    <path d="M15.9730171,5.97896529 L16.9722095,4.97977291 C17.2486564,4.70332597 17.2486564,4.25614762 16.9722095,3.98058052 C16.6966424,3.70490907 16.2486906,3.70490907 15.9730171,3.98058052 L14.9730288,4.97977291 C14.6981512,5.25544436 14.6981512,5.70408774 14.9730288,5.97896529 C15.2479268,6.25463674 15.6958786,6.25463674 15.9730171,5.97896529 Z" id="路径" fill="#FFFFFF" fill-rule="nonzero"></path>
                    <path d="M4.97934731,14.9726421 L3.98015493,15.9726508 C3.70448348,16.2475284 3.70448348,16.6954597 3.98015493,16.9718432 C4.25582638,17.2482902 4.70298427,17.2482902 4.97934731,16.9718432 L5.97853969,15.9726508 C6.25421115,15.6962673 6.25498663,15.248336 5.97853969,14.9726421 C5.7029726,14.697787 5.25581471,14.697787 4.97934731,14.9726421 Z" id="路径" fill="#FFFFFF" fill-rule="nonzero"></path>
                    <path d="M15.9730171,14.9726421 C15.6966541,14.697787 15.2487023,14.697787 14.9730288,14.9726421 C14.6973573,15.2475196 14.6981512,15.6954714 14.9730288,15.9726508 L15.9730171,16.9718432 C16.2478947,17.2482902 16.6958464,17.2482902 16.9722095,16.9718432 C17.2486564,16.6962332 17.2486564,16.2483243 16.9722095,15.9726508 L15.9730171,14.9726421 Z" id="路径" fill="#FFFFFF" fill-rule="nonzero"></path>
                    <path d="M4.97934731,3.97979072 C4.70298427,3.70411927 4.25582843,3.70411927 3.98015493,3.97979072 C3.70448348,4.25546217 3.70448348,4.70259959 3.98015493,4.9789831 L4.97934731,5.97817548 C5.25501876,6.25384693 5.7029726,6.25462242 5.97853969,5.97817548 C6.25498663,5.70329793 6.25421115,5.2546566 5.97853969,4.9789831 L4.97934731,3.97979072 Z" id="路径" fill="#FFFFFF" fill-rule="nonzero"></path>
                    <g id="编组"></g>
                </g>
            </g>
        </g>
    </g>
</svg>