<?xml version="1.0" encoding="UTF-8"?>
<svg width="20px" height="20px" viewBox="0 0 20 20" version="1.1" xmlns="http://www.w3.org/2000/svg" xmlns:xlink="http://www.w3.org/1999/xlink">
    <!-- Generator: Sketch 52.2 (67145) - http://www.bohemiancoding.com/sketch -->
    <title>形状</title>
    <desc>Created with Sketch.</desc>
    <g id="页面-1" stroke="none" stroke-width="1" fill="none" fill-rule="evenodd">
        <g id="个人资产-存款" transform="translate(-52.000000, -955.000000)" fill="#63646f" fill-rule="nonzero">
            <g id="编组-8" transform="translate(30.000000, 950.000000)">
                <g id="夜晚模式" transform="translate(22.000000, 5.000000)">
                    <path d="M19.8793993,8.68001126 L19.8793993,8.68001144 C19.835372,8.30287644 19.493952,8.03283901 19.116817,8.07686699 C18.8957339,8.10267663 18.7008253,8.23392333 18.5937728,8.42907365 L18.5937727,8.42907379 C17.1965821,10.910479 14.0523573,11.7894058 11.5709521,10.3922194 C9.08954684,8.99502874 8.21062004,5.85080399 9.60780643,3.36939876 C10.0703978,2.5478396 10.7493929,1.86884233 11.5709521,1.40625312 C11.900742,1.21808326 12.0155481,0.798193009 11.827377,0.468403172 C11.7208492,0.281700943 11.5331288,0.155568823 11.3200143,0.127501603 L11.320015,0.1275017 C5.86293448,-0.601773368 0.847895437,3.23085883 0.118628964,8.6879394 C-0.610646103,14.14502 3.22198609,19.160059 8.67906666,19.8893255 C14.1361472,20.6186005 19.1511863,16.7859683 19.8804527,11.3288878 C19.9979312,10.4498127 19.9975732,9.55899002 19.8793887,8.68001165 L19.8793993,8.68001126 Z M10.0000128,18.5937728 L10.0000131,18.5937728 C5.25380832,18.5996076 1.4015265,14.7567879 1.39570422,10.0105831 C1.39017085,5.50957984 4.85849536,1.76684697 9.34690879,1.43031533 L9.34690852,1.43031563 C6.93934517,4.11638126 7.16512473,8.24557551 9.85118176,10.6531389 C12.3320284,12.8767528 16.0888765,12.8767528 18.5697232,10.6531452 L18.5697235,10.6531404 C18.2282462,15.1333038 14.4931875,18.5941828 10.0000261,18.5937746 L10.0000128,18.5937728 Z" id="形状"></path>
                </g>
            </g>
        </g>
    </g>
</svg>