<?xml version="1.0" standalone="no"?><!DOCTYPE svg PUBLIC "-//W3C//DTD SVG 1.1//EN" "http://www.w3.org/Graphics/SVG/1.1/DTD/svg11.dtd"><svg t="1605773995800" class="icon" viewBox="0 0 1086 1024" version="1.1" xmlns="http://www.w3.org/2000/svg" p-id="3927" xmlns:xlink="http://www.w3.org/1999/xlink" width="67.875" height="64"><defs><style type="text/css"></style></defs><path d="M1022.696727 31.030303l-407.552 301.552485 75.776-177.710546z" fill="#E17726" p-id="3928"></path><path d="M82.633697 31.030303l403.921455 304.376242-72.145455-180.534303zM875.985455 730.267152l-108.45091 165.639757 232.199758 63.922424 66.497939-225.962666zM39.501576 733.866667l66.094545 225.962666 231.796364-63.922424-108.016485-165.670788z" fill="#E27625" p-id="3929"></path><path d="M324.887273 450.404848L260.437333 547.684848l229.779394 10.457213-7.664485-247.311516zM780.412121 450.404848l-160.023273-142.336-5.244121 250.104243 229.779394-10.457212zM337.392485 895.906909l139.077818-67.149576-119.714909-93.277091zM628.860121 828.757333l138.674424 67.149576-18.928484-160.426667z" fill="#E27625" p-id="3930"></path><path d="M767.534545 895.906909l-138.705454-67.149576 11.326061 90.08097-1.241213 38.167273zM337.392485 895.906909l128.99297 61.129697-0.806788-38.198303 10.891636-90.08097z" fill="#D5BFB2" p-id="3931"></path><path d="M468.805818 675.964121l-115.277576-33.760969 81.423516-37.391516zM636.524606 675.964121l33.82303-71.152485 81.85794 37.391516z" fill="#233447" p-id="3932"></path><path d="M337.392485 895.906909l20.169697-165.639757-128.186182 3.599515zM747.768242 730.267152l19.766303 165.639757 108.419879-162.040242zM844.955152 547.684848l-229.810425 10.488243 21.379879 117.79103 33.82303-71.152485 81.85794 37.391516zM353.528242 642.203152l81.423516-37.391516 33.85406 71.152485 21.379879-117.79103-229.779394-10.457212z" fill="#CC6228" p-id="3933"></path><path d="M260.406303 547.684848l96.349091 187.795394-3.227152-93.27709zM752.205576 642.203152l-3.630546 93.27709 96.349091-187.764363zM490.185697 558.173091l-21.379879 117.79103 26.996364 139.139879 6.081939-183.389091zM615.144727 558.173091l-11.29503 73.169454 5.647515 183.761455 26.996364-139.139879z" fill="#E27525" p-id="3934"></path><path d="M636.524606 675.964121l-26.996364 139.139879 19.331879 13.653333 119.714909-93.277091 3.630546-93.27709zM353.528242 642.203152l3.227152 93.27709 119.714909 93.277091 19.362909-13.653333-26.996364-139.139879z" fill="#F5841F" p-id="3935"></path><path d="M638.913939 957.036606l1.241213-38.198303-10.488243-8.843636h-154.003394l-10.084848 8.843636 0.806788 38.167273-128.99297-61.098667 45.149091 36.988121 91.539394 63.146667h156.796121l91.911757-63.146667 44.745697-36.988121z" fill="#C0AC9D" p-id="3936"></path><path d="M628.860121 828.757333l-19.362909-13.653333H495.864242l-19.362909 13.653333-10.860606 90.08097 10.053818-8.843636h154.003394l10.488243 8.843636z" fill="#161616" p-id="3937"></path><path d="M1040.042667 352.28703L1074.269091 185.871515 1022.696727 31.030303l-393.836606 291.498667 151.583031 127.844848 214.04703 62.370909 47.16606-55.109818-20.57309-14.894545 32.674909-29.727031-25.010425-19.300848 32.643879-24.948364zM31.030303 185.840485l34.660849 166.446545-22.155637 16.508122 33.047273 24.917333-24.979394 19.300848 32.643879 29.758061-20.573091 14.894545 47.16606 55.047758 214.078061-62.308849 151.552-127.844848L82.633697 31.030303z" fill="#763E1A" p-id="3938"></path><path d="M994.490182 512.713697l-214.04703-62.308849 64.480969 97.311031-96.349091 187.764363 127.410425-1.613575h190.246787zM324.887273 450.404848l-214.047031 62.308849-71.369697 221.15297h189.905455l127.379394 1.613575-96.349091-187.764363zM615.144727 558.173091l13.715394-235.644121 62.060606-167.656728h-276.51103l62.060606 167.656728 13.715394 235.644121 5.244121 73.976242 0.403394 182.954667h113.664l0.403394-182.954667z" fill="#F5841F" p-id="3939"></path></svg>